PathFileType	3	(X/Y/Z)	running_2__view1_aligned.trc
DataRate	CameraRate	NumFrames	NumMarkers	Units	OrigDataRate	OrigDataStartFrame	OrigNumFrames
100.0	100.0	9	19	mm	100.0	5043	6354
Frame#	Time	pelvis			neck			head			hip_left			hip_right			knee_left			knee_right			ankle_left			ankle_right			heel_left			heel_right			toe_left			toe_right			shoulder_left			shoulder_right			elbow_left			elbow_right			wrist_left			wrist_right			
		X1	Y1	Z1	X2	Y2	Z2	X3	Y3	Z3	X4	Y4	Z4	X5	Y5	Z5	X6	Y6	Z6	X7	Y7	Z7	X8	Y8	Z8	X9	Y9	Z9	X10	Y10	Z10	X11	Y11	Z11	X12	Y12	Z12	X13	Y13	Z13	X14	Y14	Z14	X15	Y15	Z15	X16	Y16	Z16	X17	Y17	Z17	X18	Y18	Z18	X19	Y19	Z19	
5043	50.42000	54.463583	946.605112	221.457337	31.678915	1482.198689	358.350390	51.672450	1564.006415	507.433702	129.734040	950.405064	220.774938	-20.807066	942.805135	222.139877	134.765236	533.558133	327.531729	-73.201639	529.143675	347.442783	148.629539	139.672313	219.021250	-111.827516	243.332802	110.197136	150.425836	93.242465	180.999766	-110.656629	229.682787	62.104395	138.365472	79.110363	396.741576	-117.037928	101.234966	190.006203	202.791078	1462.795465	312.397909	-139.229005	1435.640344	317.531777	298.417751	1218.222519	241.995028	-224.358228	1183.117086	242.200584	184.051354	1137.500213	430.910181	-141.300664	1104.976585	449.485564
5044	50.43000	55.296413	946.612879	219.936655	31.577294	1482.111301	358.296105	51.025295	1564.067642	507.288081	130.480112	950.435645	219.211919	-19.887445	942.790093	220.661500	135.108081	532.595901	317.898976	-72.021344	530.637901	350.397653	148.436641	139.734186	206.862430	-111.762149	242.624100	120.265748	149.899943	93.870207	168.703292	-110.919287	228.060211	72.999450	138.866739	77.613030	382.255656	-116.395182	104.230079	202.208761	202.971985	1463.019262	313.443092	-139.019259	1435.854746	315.925877	301.463139	1219.616862	242.806497	-225.557064	1185.141019	236.955594	185.346716	1137.755742	430.900875	-145.530119	1101.820871	442.665004
5045	50.44000	56.129242	946.620646	218.415973	31.475673	1482.023913	358.241819	50.378139	1564.128869	507.142460	131.226185	950.466225	217.648900	-18.967824	942.775052	219.183122	135.450926	531.633668	308.266223	-70.841048	532.132127	353.352523	148.243743	139.796058	194.703609	-111.696783	241.915398	130.334361	149.374050	94.497948	156.406817	-111.181944	226.437635	83.894505	139.368007	76.115696	367.769737	-115.752435	107.225191	214.411320	203.152892	1463.243059	314.488274	-138.809513	1436.069149	314.319978	304.508527	1221.011205	243.617966	-226.755900	1187.164952	231.710605	186.642078	1138.011270	430.891569	-149.759574	1098.665157	435.844443
5046	50.45000	56.962071	946.628413	216.895291	31.374052	1481.936525	358.187534	49.730984	1564.190097	506.996839	131.972257	950.496805	216.085881	-18.048204	942.760010	217.704745	135.793772	530.671436	298.633470	-69.660752	533.626354	356.307393	148.050846	139.857930	182.544789	-111.631416	241.206696	140.402974	148.848157	95.125690	144.110343	-111.444602	224.815060	94.789560	139.869274	74.618362	353.283817	-115.109689	110.220304	226.613878	203.333799	1463.466857	315.533456	-138.599767	1436.283551	312.714079	307.553916	1222.405548	244.429436	-227.954735	1189.188884	226.465615	187.937440	1138.266799	430.882263	-153.989029	1095.509443	429.023882
5047	50.46000	57.794900	946.636180	215.374609	31.272431	1481.849137	358.133249	49.083829	1564.251324	506.851218	132.718329	950.527385	214.522862	-17.128583	942.744969	216.226367	136.136617	529.709203	289.000717	-68.480456	535.120580	359.262263	147.857948	139.919803	170.385968	-111.566050	240.497994	150.471586	148.322263	95.753432	131.813868	-111.707259	223.192484	105.684615	140.370542	73.121028	338.797898	-114.466943	113.215416	238.816437	203.514705	1463.690654	316.578638	-138.390021	1436.497953	311.108179	310.599304	1223.799891	245.240905	-229.153571	1191.212817	221.220626	189.232802	1138.522327	430.872957	-158.218483	1092.353729	422.203321
5048	50.47000	58.627729	946.643947	213.853927	31.170810	1481.761749	358.078963	48.436673	1564.312551	506.705597	133.464401	950.557965	212.959843	-16.208962	942.729927	214.747990	136.479462	528.746970	279.367965	-67.300161	536.614806	362.217134	147.665050	139.981675	158.227148	-111.500684	239.789292	160.540199	147.796370	96.381174	119.517394	-111.969917	221.569908	116.579669	140.871810	71.623695	324.311979	-113.824196	116.210529	251.018995	203.695612	1463.914451	317.623820	-138.180275	1436.712355	309.502280	313.644692	1225.194235	246.052374	-230.352407	1193.236749	215.975636	190.528164	1138.777856	430.863651	-162.447938	1089.198015	415.382760
5049	50.48000	57.696692	945.573033	213.046111	29.414642	1480.478103	358.878760	46.023738	1563.416710	507.369492	132.598036	949.302841	211.838447	-17.204668	941.843226	214.253757	135.653995	526.493075	273.329326	-66.871701	536.517048	366.261968	144.333304	143.668003	143.590467	-110.314153	237.176572	170.093558	143.846521	101.822983	104.227189	-111.041508	217.963200	126.669401	138.640461	70.575574	304.303316	-111.225610	116.733415	263.410785	202.162270	1463.449529	319.160352	-139.544414	1434.705125	308.943812	313.352324	1225.007291	246.191276	-231.914459	1192.153300	211.914511	191.277429	1135.558773	430.474815	-167.880859	1083.967420	411.435293
5050	50.49000	56.765655	944.502120	212.238295	27.658473	1479.194457	359.678557	43.610804	1562.520868	508.033387	131.731672	948.047716	210.717052	-18.200374	940.956525	213.759525	134.828529	524.239179	267.290687	-66.443242	536.419290	370.306803	141.001558	147.354331	128.953787	-109.127622	234.563852	179.646917	139.896671	107.264791	88.936984	-110.113099	214.356491	136.759133	136.409111	69.527453	284.294653	-108.627023	117.256302	275.802574	200.628929	1462.984606	320.696884	-140.908554	1432.697896	308.385345	313.059956	1224.820347	246.330178	-233.476510	1191.069850	207.853385	192.026693	1132.339690	430.085979	-173.313780	1078.736826	407.487827
5051	50.50000	55.834618	943.431207	211.430479	25.902304	1477.910811	360.478355	41.197869	1561.625027	508.697282	130.865307	946.792592	209.595656	-19.196080	940.069823	213.265292	134.003063	521.985284	261.252049	-66.014782	536.321532	374.351637	137.669812	151.040659	114.317106	-107.941092	231.951132	189.200276	135.946822	112.706600	73.646779	-109.184690	210.749782	146.848865	134.177762	68.479332	264.285991	-106.028437	117.779188	288.194364	199.095587	1462.519684	322.233416	-142.272694	1430.690666	307.826877	312.767589	1224.633403	246.469080	-235.038562	1189.986401	203.792260	192.775958	1129.120606	429.697143	-178.746701	1073.506232	403.540360
